<svg xmlns="http://www.w3.org/2000/svg" viewBox="0 0 32 32" role="img" aria-label="AI Learning Assistant">
  <defs>
    <linearGradient id="bg" x1="0" y1="0" x2="32" y2="32" gradientUnits="userSpaceOnUse">
      <stop offset="0%" stop-color="#10b981"/>
      <stop offset="100%" stop-color="#059669"/>
    </linearGradient>
  </defs>
  <rect width="32" height="32" rx="7" fill="url(#bg)"/>
  <path fill="#ecfdf5" d="M9 8.5c0-.8.7-1.5 1.5-1.5H15v17h-4.5A1.5 1.5 0 0 1 9 22.5V8.5Z"/>
  <path fill="#ffffff" d="M17 7h4.5c.8 0 1.5.7 1.5 1.5v14c0 .8-.7 1.5-1.5 1.5H17V7Z"/>
  <path fill="#d1fae5" d="M15 7v17h2V7h-2Z"/>
  <path fill="#ffffff" d="M21.2 9.8l.9 1.8 2 .3-1.4 1.4.3 2-1.8-.9-1.8.9.3-2-1.4-1.4 2-.3.9-1.8Z"/>
</svg>
